<?xml version="1.0" encoding="UTF-8"?>
<!-- Clean, font-independent SVG logo to avoid clipping across devices. -->
<svg width="512" height="128" viewBox="0 0 512 128" xmlns="http://www.w3.org/2000/svg" role="img" aria-label="Punt">
  <title>Punt</title>
  <defs>
    <linearGradient id="g" x1="0%" y1="0%" x2="100%" y2="0%">
      <stop offset="0%" stop-color="#FFDF00"/>
      <stop offset="100%" stop-color="#FFDF00"/>
    </linearGradient>
  </defs>
  <!-- Mark: stylized ring -->
  <g transform="translate(8,8)">
    <circle cx="48" cy="56" r="40" stroke="url(#g)" stroke-width="10" fill="none"/>
    <rect x="44" y="8" width="8" height="96" fill="#FFDF00" transform="rotate(18 48 56)"/>
  </g>
  <!-- Wordmark (outlined paths, no external fonts) -->
  <g fill="#FFDF00" transform="translate(120,20)">
    <!-- P -->
    <path d="M0 88V0h40c26 0 40 14 40 34s-14 34-40 34H28v20H0zm28-44h10c11 0 14-6 14-10s-3-10-14-10H28v20z"/>
    <!-- U -->
    <path d="M98 0v50c0 26 18 40 44 40s44-14 44-40V0h-28v50c0 10-6 16-16 16s-16-6-16-16V0h-28z"/>
    <!-- N -->
    <path d="M212 88V0h28l44 58V0h28v88h-28l-44-58v58h-28z"/>
    <!-- T -->
    <path d="M344 88V24h-28V0h84v24h-28v64h-28z"/>
  </g>
</svg>
